<svg width="77" height="38" viewBox="0 0 77 38" fill="none" xmlns="http://www.w3.org/2000/svg">
<g clip-path="url(#clip0_24_278)">
<path d="M19.9936 1.92526C21.972 4.95391 20.4761 9.37671 17.8222 12.5977C16.4229 14.3283 14.6858 13.7995 15.2648 13.0784C17.2914 10.3863 19.125 0.194596 13.6724 2.35792C10.343 3.70399 8.75061 11.9727 8.12332 19.7607C9.90869 19.2319 11.5976 18.9434 12.5144 18.8953C13.8655 18.7992 13.962 19.7126 13.5759 19.8087C12.2248 20.0491 10.1017 20.5779 7.97856 21.4913C7.59254 27.4525 7.68904 32.7887 7.93031 33.9425C8.17158 35.0962 5.17988 35.3847 4.60084 33.2694C3.9253 30.8177 3.39451 27.7409 3.10499 24.4719C2.81547 24.7603 2.52595 25.0969 2.28469 25.3853C1.60914 26.2026 -0.513996 25.2892 0.113296 24.0873C0.595827 23.1739 1.6574 22.4047 2.96023 21.6836C2.67071 14.3764 3.87704 6.54035 7.88206 2.45407C9.66742 0.675334 12.3213 -0.0457739 14.734 -0.000103722C17.1467 -0.000103722 19.2698 0.769079 19.9936 1.92285V1.92526Z" fill="#138F88"/>
<path d="M27.0386 17.1167C28.1002 19.6646 24.2399 22.501 20.9105 22.3087C20.1384 25.6739 20.2832 29.2794 22.5511 29.2794C28.1967 29.3275 30.8989 20.2415 31.9604 16.5879C32.057 16.1552 33.3598 16.2033 33.2633 16.7321C32.3947 21.9722 28.3415 31.635 21.779 31.1062C13.8655 30.4332 13.4312 16.011 22.0685 15.0495C22.4546 15.0015 22.8406 14.9534 23.2266 14.9534C24.819 14.9534 26.3631 15.4341 27.0386 17.1167V17.1167ZM24.0469 16.5398C22.9371 17.0687 21.8273 19.0878 21.2 21.3472C24.1434 20.7703 26.0253 19.232 25.9288 17.7417C25.8805 16.636 25.2533 16.3475 24.7707 16.3956C24.4329 16.3956 24.1917 16.4918 24.0469 16.5398V16.5398Z" fill="#138F88"/>
<path d="M39.1502 15.3861C39.1984 15.4341 39.2467 15.4822 39.2467 15.5784C40.067 14.8092 42.1419 14.4727 42.9622 16.011C43.879 17.8378 41.9006 28.5102 43.7342 28.0776C46.7742 27.3565 48.3665 17.4052 48.5595 16.6841C48.7043 15.9629 49.9589 16.2033 49.8624 16.8763C49.7176 17.5975 48.5113 29.9524 43.0104 29.7121C39.5362 29.5198 38.1369 26.2988 37.9438 22.7414C36.641 25.6739 35.1452 28.1256 32.0087 27.2603C28.9687 26.443 29.017 23.0298 29.5478 20.7223C30.1268 18.4147 31.8157 15.5303 34.6626 14.6169C35.3382 14.3765 35.9655 14.3284 36.5445 14.3284C38.1369 14.3765 39.0054 15.1938 39.1502 15.3861V15.3861ZM33.8906 25.77C34.9521 25.5777 37.7991 18.9435 38.4746 17.5013C38.4746 17.4532 38.5229 17.3571 38.5229 17.309C38.4264 17.4052 38.3781 17.4532 38.3299 17.5013C38.0886 17.5975 37.1718 17.3571 37.1718 17.0206C37.22 16.7321 37.1718 16.5879 36.9788 16.4918C36.255 16.2514 32.4912 26.0585 33.8906 25.77V25.77Z" fill="#138F88"/>
<path d="M53.5779 10.7229C58.2102 11.1555 57.7759 16.8763 57.3417 18.7993C57.1004 19.905 54.929 20.2415 55.2185 18.607C55.315 18.0782 55.2185 12.4055 54.3017 12.5978C53.8192 12.6939 51.1652 18.7512 55.3633 24.9527C55.5563 25.2412 55.7493 25.5296 55.8941 25.8181C58.0655 24.6643 61.0571 22.4529 63.0355 16.7321C63.2768 16.1072 64.3384 16.4437 64.2419 16.8763C62.7943 22.6452 59.2235 25.5777 56.5696 27.068C59.7543 33.5099 56.7144 38.6538 52.3716 37.9327C48.5113 37.2597 49.5729 31.3946 52.1303 28.2698C51.5995 26.6834 50.8275 24.9047 49.7659 23.0298C46.0987 16.7321 48.2218 10.6748 53.0954 10.7229H53.5779V10.7229ZM52.1786 36.7789C52.9989 36.8751 53.7709 34.2791 52.7094 30.0967C51.31 32.6926 51.2135 36.6828 52.1786 36.7789Z" fill="#138F88"/>
<path d="M68.9224 8.51148C68.7776 9.28066 68.5846 10.0979 68.4399 10.9152C71.6728 11.0113 74.2302 11.2998 74.8575 11.444C75.9191 11.6844 76.4016 12.7901 75.6778 12.742C73.2652 12.5978 70.7077 12.6458 68.1021 12.7901C66.7027 21.203 66.2202 29.8563 67.8126 29.9044C70.4665 30.0486 74.375 18.9435 75.5813 16.5398C75.9191 15.8187 77.1737 16.2994 76.9807 16.7802C74.6645 22.8856 71.0455 31.6831 66.5097 31.9235C60.5746 32.26 61.5879 20.9145 62.9872 13.1746C61.7809 13.3189 60.5746 13.415 59.4165 13.5592C58.1619 13.7035 57.1486 11.7324 58.1619 11.5401C59.8025 11.2036 61.5879 11.0113 63.4215 10.9152C63.9041 8.6557 64.3383 6.92504 64.4831 6.39623C64.6278 5.86741 65.2069 5.62704 65.8342 5.62704C67.2818 5.67512 69.3084 6.78082 68.9224 8.51148V8.51148Z" fill="#138F88"/>
</g>
<defs>
<clipPath id="clip0_24_278">
<rect width="77" height="38" fill="white"/>
</clipPath>
</defs>
</svg>
