<svg width="134" height="66" viewBox="0 0 134 66" fill="none" xmlns="http://www.w3.org/2000/svg">
<g clip-path="url(#clip0_150_813)">
<path d="M34.794 3.34385C38.2369 8.60415 35.6337 16.2858 31.0152 21.8801C28.58 24.886 25.557 23.9675 26.5646 22.7151C30.0915 18.0393 33.2825 0.337969 23.7935 4.09532C17.9994 6.43323 15.2283 20.7947 14.1366 34.3211C17.2436 33.4027 20.1827 32.9017 21.7782 32.8182C24.1294 32.6512 24.2974 34.2376 23.6256 34.4046C21.2743 34.8221 17.5795 35.7406 13.8847 37.327C13.2129 47.6806 13.3809 56.9488 13.8007 58.9527C14.2206 60.9566 9.01426 61.4576 8.00659 57.7837C6.83096 53.5254 5.90726 48.1816 5.40342 42.5038C4.89958 43.0048 4.39574 43.5893 3.97588 44.0903C2.80026 45.5097 -0.894559 43.9233 0.197091 41.8358C1.03682 40.2494 2.88423 38.9135 5.1515 37.661C4.64766 24.9695 6.74699 11.3595 13.7168 4.26232C16.8238 1.17294 21.4423 -0.0795149 25.6409 -0.000192998C29.8396 -0.000192998 33.5344 1.33576 34.794 3.33968V3.34385Z" fill="white"/>
<path d="M47.0542 29.729C48.9016 34.1544 42.1838 39.0807 36.3896 38.7467C35.046 44.5915 35.298 50.8537 39.2447 50.8537C49.0695 50.9372 53.772 35.1563 55.6194 28.8106C55.7874 28.0591 58.0547 28.1426 57.8867 29.0611C56.3752 38.1622 49.3215 54.9451 37.9011 54.0266C24.1295 52.8576 23.3738 27.8086 38.405 26.1387C39.0768 26.0552 39.7485 25.9717 40.4203 25.9717C43.1914 25.9717 45.8786 26.8066 47.0542 29.729V29.729ZM41.8479 28.7271C39.9165 29.6455 37.9851 33.1524 36.8935 37.0767C42.0158 36.0748 45.2908 33.4029 45.1228 30.8145C45.0388 28.8941 43.9472 28.3931 43.1075 28.4766C42.5196 28.4766 42.0998 28.6436 41.8479 28.7271V28.7271Z" fill="white"/>
<path d="M68.1313 26.7232C68.2153 26.8067 68.2993 26.8902 68.2993 27.0571C69.7268 25.7212 73.3377 25.1367 74.7652 27.8086C76.3607 30.9815 72.9178 49.5178 76.1088 48.7663C81.3991 47.5138 84.1702 30.23 84.5061 28.9776C84.758 27.7251 86.9413 28.1426 86.7734 29.3116C86.5214 30.564 84.4221 52.0227 74.8492 51.6052C68.8031 51.2712 66.3679 45.6769 66.032 39.4982C63.7647 44.5915 61.1616 48.8498 55.7033 47.3469C50.413 45.9274 50.497 39.9991 51.4207 35.9913C52.4284 31.9835 55.3674 26.9736 60.3218 25.3872C61.4975 24.9697 62.5891 24.8862 63.5968 24.8862C66.3679 24.9697 67.8794 26.3892 68.1313 26.7232V26.7232ZM58.9783 44.7585C60.8257 44.4245 65.7801 32.9019 66.9557 30.397C66.9557 30.3135 67.0397 30.1465 67.0397 30.063C66.8717 30.23 66.7878 30.3135 66.7038 30.397C66.2839 30.564 64.6884 30.1465 64.6884 29.562C64.7724 29.0611 64.6884 28.8106 64.3525 28.6436C63.093 28.2261 56.5431 45.2594 58.9783 44.7585V44.7585Z" fill="white"/>
<path d="M93.2394 18.624C101.301 19.3754 100.545 29.3116 99.7893 32.6514C99.3695 34.5718 95.5907 35.1563 96.0945 32.3174C96.2625 31.399 96.0945 21.5464 94.499 21.8803C93.6593 22.0473 89.0408 32.5679 96.3464 43.339C96.6823 43.84 97.0182 44.341 97.2701 44.8419C101.049 42.838 106.255 38.9972 109.698 29.0611C110.118 27.9756 111.965 28.5601 111.797 29.3116C109.278 39.3312 103.064 44.4245 98.4458 47.0129C103.988 58.2014 98.6977 67.1356 91.1401 65.8831C84.4223 64.7142 86.2697 54.5276 90.7203 49.1003C89.7965 46.3449 88.453 43.2555 86.6056 39.9991C80.2236 29.0611 83.9184 18.5405 92.3997 18.624H93.2394V18.624ZM90.8042 63.8792C92.2318 64.0462 93.5753 59.5374 91.7279 52.2732C89.2927 56.782 89.1248 63.7122 90.8042 63.8792Z" fill="white"/>
<path d="M119.943 14.7831C119.691 16.1191 119.355 17.5385 119.103 18.958C124.729 19.125 129.18 19.6259 130.272 19.8764C132.119 20.2939 132.959 22.2143 131.699 22.1308C127.5 21.8803 123.05 21.9638 118.515 22.2143C116.08 36.8263 115.24 51.8557 118.011 51.9392C122.63 52.1897 129.432 32.9019 131.531 28.7271C132.119 27.4746 134.302 28.3096 133.966 29.1446C129.936 39.7486 123.638 55.0286 115.744 55.446C105.415 56.0305 107.179 36.3253 109.614 22.8823C107.515 23.1328 105.415 23.2998 103.4 23.5503C101.217 23.8008 99.4534 20.3774 101.217 20.0434C104.072 19.4589 107.179 19.125 110.37 18.958C111.21 15.0336 111.965 12.0277 112.217 11.1093C112.469 10.1908 113.477 9.77332 114.569 9.77332C117.088 9.85681 120.615 11.7772 119.943 14.7831V14.7831Z" fill="white"/>
</g>
<defs>
<clipPath id="clip0_150_813">
<rect width="134" height="66" fill="white"/>
</clipPath>
</defs>
</svg>
