<svg width="32" height="32" viewBox="0 0 32 32" fill="none" xmlns="http://www.w3.org/2000/svg">
<g clip-path="url(#clip0_15_503)">
<path d="M24 5.33337H7.99998C6.52722 5.33337 5.33331 6.52728 5.33331 8.00004V24C5.33331 25.4728 6.52722 26.6667 7.99998 26.6667H24C25.4727 26.6667 26.6666 25.4728 26.6666 24V8.00004C26.6666 6.52728 25.4727 5.33337 24 5.33337Z" stroke="white" stroke-width="2" stroke-linecap="round" stroke-linejoin="round"/>
<path d="M10.6667 14.6666V21.3333" stroke="white" stroke-width="2" stroke-linecap="round" stroke-linejoin="round"/>
<path d="M10.6667 10.6666V10.68" stroke="white" stroke-width="2" stroke-linecap="round" stroke-linejoin="round"/>
<path d="M16 21.3333V14.6666" stroke="white" stroke-width="2" stroke-linecap="round" stroke-linejoin="round"/>
<path d="M21.3333 21.3333V17.3333C21.3333 16.626 21.0524 15.9478 20.5523 15.4477C20.0522 14.9476 19.3739 14.6666 18.6667 14.6666C17.9594 14.6666 17.2811 14.9476 16.781 15.4477C16.281 15.9478 16 16.626 16 17.3333" stroke="white" stroke-width="2" stroke-linecap="round" stroke-linejoin="round"/>
</g>
<defs>
<clipPath id="clip0_15_503">
<rect width="32" height="32" fill="white"/>
</clipPath>
</defs>
</svg>
