<svg width="25" height="25" viewBox="0 0 25 25" fill="none" xmlns="http://www.w3.org/2000/svg">
<g clip-path="url(#clip0_41_48)">
<path d="M12.5 21.5C17.4706 21.5 21.5 17.4706 21.5 12.5C21.5 7.52944 17.4706 3.5 12.5 3.5C7.52944 3.5 3.5 7.52944 3.5 12.5C3.5 17.4706 7.52944 21.5 12.5 21.5Z" stroke="black" stroke-width="2" stroke-linecap="round" stroke-linejoin="round"/>
<path d="M12.5 13.5C14.1569 13.5 15.5 12.1569 15.5 10.5C15.5 8.84315 14.1569 7.5 12.5 7.5C10.8431 7.5 9.5 8.84315 9.5 10.5C9.5 12.1569 10.8431 13.5 12.5 13.5Z" stroke="black" stroke-width="2" stroke-linecap="round" stroke-linejoin="round"/>
<path d="M6.66803 19.349C6.91554 18.5252 7.422 17.8032 8.11228 17.29C8.80255 16.7768 9.63988 16.4997 10.5 16.5H14.5C15.3613 16.4997 16.1996 16.7774 16.8904 17.2918C17.5812 17.8062 18.0875 18.5298 18.334 19.355" stroke="black" stroke-width="2" stroke-linecap="round" stroke-linejoin="round"/>
</g>
<defs>
<clipPath id="clip0_41_48">
<rect width="24" height="24" fill="white" transform="translate(0.5 0.5)"/>
</clipPath>
</defs>
</svg>
